<svg width="997" height="137" viewBox="0 0 997 137" fill="none" xmlns="http://www.w3.org/2000/svg">
<g id="Vector">
<path d="M75.3727 60.1034V74.8264H16.5908V134.377H0V2.64H89.4364V17.3629H16.5908V60.1034H75.3727Z" fill="#3F2B24"/>
<path d="M158.768 2.53264C195.136 2.53264 224.691 32.0884 224.691 68.4563C224.691 104.824 195.136 134.38 158.768 134.38C122.4 134.38 92.8442 104.824 92.8442 68.4563C92.8442 32.0884 122.51 2.53264 158.768 2.53264ZM115.808 25.6059C97.5688 43.625 102.293 77.7954 126.026 101.308C139.76 115.262 157.12 122.624 172.941 122.624C183.929 122.624 194.147 118.888 201.728 111.307C219.967 93.2875 215.572 59.4467 191.73 35.6043C177.776 21.6505 160.526 14.289 144.924 14.289C133.827 14.289 123.499 18.0247 115.918 25.6059H115.808Z" fill="#3F2B24"/>
<path d="M238.869 2.53264H292.267C318.307 2.53264 335.776 16.5963 335.776 39.9992C335.776 59.0072 326.767 69.4451 312.154 73.1808V73.5104C341.49 79.2238 330.722 130.974 337.644 133.281V134.38H319.735C314.022 128.886 326.547 81.0916 293.146 81.0916H255.35V134.38H238.759V2.6425L238.869 2.53264ZM255.459 66.3687H288.421C302.045 66.3687 319.186 64.7206 319.186 41.8671C319.186 19.0135 302.045 17.3654 288.421 17.3654H255.459V66.3687Z" fill="#3F2B24"/>
<path d="M355.659 2.53264H378.293L419.605 111.966H419.935L461.247 2.53264H483.881V134.27H467.29V25.9355H466.96L427.186 134.27H412.463L372.689 25.9355H372.36V134.27H355.769V2.53264H355.659Z" fill="#3F2B24"/>
<path d="M501.895 2.53264H522.222L588.036 111.087H588.365V2.53264H604.956V134.27H584.63L518.816 26.0454H518.486V134.27H501.895V2.53264Z" fill="#3F2B24"/>
<path d="M707.027 73.5104H639.346V119.547H718.015V134.27H622.755V2.53264H715.817V17.2556H639.346V58.6776H707.027V73.5104Z" fill="#3F2B24"/>
<path d="M829.654 99.8743C829.654 118.992 815.48 136.901 782.079 136.901C750.985 136.901 726.813 120.311 724.945 90.0956H741.536C743.404 108.115 754.391 122.178 782.079 122.178C804.932 122.178 813.063 111.631 813.063 99.8743C813.063 81.8552 803.284 78.4491 773.838 71.637C754.171 67.0224 730.549 60.2102 730.549 34.6099C730.549 13.7341 746.59 0 775.706 0C804.823 0 823.281 14.3933 825.479 41.6417H808.888C806.471 23.9522 796.582 14.7229 775.706 14.7229C757.028 14.7229 747.139 21.8647 747.139 32.7421C747.139 50.2118 761.313 52.629 780.651 57.4634C810.316 64.8249 829.654 69.7692 829.654 99.8743Z" fill="#3F2B24"/>
<path d="M880.299 17.3629H836.46V2.64H940.729V17.3629H896.89V134.377H880.299V17.3629Z" fill="#3F2B24"/>
<path d="M962.041 5.16709V2.64002H976.544V5.16709H970.83V20.5493H967.864V5.16709H962.041Z" fill="#3F2B24"/>
<path d="M978.521 2.53267H982.367L987.421 16.3766L992.365 2.53267H996.211V20.4419H993.354V6.81769L988.63 20.4419H986.213L981.488 6.81769V20.4419H978.631V2.53267H978.521Z" fill="#3F2B24"/>
</g>
</svg>
